14th-century knights transport a suspected witch to a monastery, where monks deduce her powers could be the source of the Black Plague. 

 Director: Dominic Sena
 Writer: Bragi F. Schut
Stars: Nicolas Cage, Ron Perlman and Claire Foy
 
http://image.bayimg.com/gaigaaadd.jpg


info:
Season Of The Witch 2011 BluRay 720p H264-3Li.mp4
Format                           : MPEG-4
Format profile                   : Base Media
Codec ID                         : isom
File size                        : 2.80 GiB
Duration                         : 1h 34mn
Overall bit rate                 : 4 229 Kbps
Encoded date                     : UTC 2011-03-16 14:46:03
Tagged date                      : UTC 2011-03-16 14:46:03

Video
ID                               : 1
Format                           : AVC
Format/Info                      : Advanced Video Codec
Format profile                   : High@L4.1
Format settings, CABAC           : Yes
Format settings, ReFrames        : 8 frames
Codec ID                         : avc1
Codec ID/Info                    : Advanced Video Coding
Duration                         : 1h 34mn
Bit rate mode                    : Variable
Bit rate                         : 3 702 Kbps
Maximum bit rate                 : 19.0 Mbps
Width                            : 1 280 pixels
Height                           : 720 pixels
Display aspect ratio             : 16:9
Frame rate mode                  : Constant
Frame rate                       : 23.976 fps
Color space                      : YUV
Chroma subsampling               : 4:2:0
Bit depth                        : 8 bits
Scan type                        : Progressive
Bits/(Pixel*Frame)               : 0.168
Stream size                      : 2.45 GiB (87%)
Title                            : Season Of The Witch By 3Li
Writing library                  : x264 core 114 r1913 5fd3dce
Encoding settings                : cabac=1 / ref=8 / deblock=1:-3:-3 / analyse=0x3:0x113 / me=umh / subme=9 / psy=1 / psy_rd=0.80:0.00 / mixed_ref=1 / me_range=32 / chroma_me=1 / trellis=1 / 8x8dct=1 / cqm=0 / deadzone=21,11 / fast_pskip=0 / chroma_qp_offset=-2 / threads=3 / sliced_threads=0 / nr=0 / decimate=0 / interlaced=0 / constrained_intra=0 / bframes=6 / b_pyramid=2 / b_adapt=2 / b_bias=0 / direct=1 / weightb=1 / open_gop=0 / weightp=2 / keyint=250 / keyint_min=23 / scenecut=40 / intra_refresh=0 / rc_lookahead=40 / rc=2pass / mbtree=1 / bitrate=3702 / ratetol=1.0 / qcomp=0.60 / qpmin=10 / qpmax=51 / qpstep=4 / cplxblur=20.0 / qblur=0.5 / ip_ratio=1.40 / aq=1:1.00
Encoded date                     : UTC 2011-03-16 14:46:03
Tagged date                      : UTC 2011-03-16 14:47:55

Audio
ID                               : 2
Format                           : AAC
Format/Info                      : Advanced Audio Codec
Format version                   : Version 4
Format profile                   : LC
Format settings, SBR             : No
Codec ID                         : 40
Duration                         : 1h 34mn
Bit rate mode                    : Variable
Bit rate                         : 529.2 Kbps
Maximum bit rate                 : 541 Kbps
Channel(s)                       : 6 channels
Channel positions                : Front: L C R, Side: L R, LFE
Sampling rate                    : 48.0 KHz
Compression mode                 : Lossy
Stream size                      : 357 MiB (12%)
Title                            : Season Of The Witch
Language                         : English
Encoded date                     : UTC 2011-03-16 14:47:32
Tagged date                      : UTC 2011-03-16 14:47:55

